<svg xmlns="http://www.w3.org/2000/svg" viewBox="0 0 810 810">
  <rect width="810" height="810" rx="180" fill="#14100C"/>
  <path fill="#F4EEE4" d="M779.74 554.57c0 30.95-9.67 57.39-29.02 79.31-19.34 21.92-49.86 38.68-91.55 50.28s-95.84 17.41-162.47 17.41c-66.62 0-123.26-5.37-169.89-16.11-46.64-10.74-82.1-28.36-106.39-52.87-24.28-24.5-36.42-57.16-36.42-97.99 0-40.84 12.14-73.61 36.42-98.33 24.29-24.72 59.75-42.55 106.39-53.52 46.63-10.96 103.27-16.44 169.89-16.44 66.63 0 120.57 5.81 161.83 17.41 41.26 11.6 71.56 28.37 90.91 50.28 19.34 21.92 29.23 48.14 29.66 78.66H637.27c-6.88-16.77-22.35-29.77-46.42-39.02-24.07-9.24-55.45-13.86-94.14-13.86-31.37 0-58.67 2.26-81.89 6.78-23.21 4.51-41.15 12.14-53.83 22.89-12.68 10.74-19.01 25.78-19.01 45.12 0 18.91 6.23 33.74 18.69 44.49 12.47 10.74 30.3 18.26 53.52 22.56 23.22 4.31 50.73 6.45 82.53 6.45 38.69 0 70.17-4.62 94.45-13.86 24.29-9.25 39.88-22.47 46.76-39.66z" transform="translate(-22.56,-315.92) scale(0.79) translate(161.44,691.9)"/>
  <rect fill="#FF7043" x="730" y="720" width="60" height="60" rx="4"/>
</svg>
